<?xml version="1.0" encoding="UTF-8" standalone="no"?>
<!DOCTYPE svg PUBLIC "-//W3C//DTD SVG 1.1//EN" "http://www.w3.org/Graphics/SVG/1.1/DTD/svg11.dtd">
<svg width="100%" height="100%" viewBox="0 0 2048 2048" version="1.1" xmlns="http://www.w3.org/2000/svg" xmlns:xlink="http://www.w3.org/1999/xlink" xml:space="preserve" xmlns:serif="http://www.serif.com/" style="fill-rule:evenodd;clip-rule:evenodd;stroke-linejoin:round;stroke-miterlimit:2;">
    <path d="M576,1488C571.725,1499.275 563.174,1521.826 568,1538C574.167,1558.667 593.811,1590.431 613,1612C634.5,1636.167 665.178,1664.793 697,1683C729.333,1701.5 770.781,1708.494 807,1723C870.667,1748.5 984.568,1809.134 1079,1836C1176.833,1863.833 1287.53,1886.363 1394,1890C1501.333,1893.667 1646.833,1871.5 1723,1858C1767.985,1850.027 1818.333,1832.667 1851,1809C1882.099,1786.469 1900.667,1740.833 1919,1716C1932.858,1697.228 1949.833,1678.5 1961,1660C1971.407,1642.759 1986.167,1621.667 1986,1605C1985.833,1588.333 1970.06,1574.104 1960,1560C1943,1536.167 1903.5,1485.667 1884,1462C1871.252,1446.528 1860.04,1428.56 1843,1418C1819.333,1403.333 1776.504,1386.572 1742,1374C1700.833,1359 1630.944,1338.333 1596,1328" style="fill:rgb(231,195,169);"/>
    <path d="M1180,361C1140.222,363.667 1060.667,369 1024,370C1002.651,370.582 981.355,366.699 960,367C936.333,367.333 907.888,369.069 882,372C855.5,375 825.833,379 801,385C777.741,390.62 754.376,397.247 733,408C705.5,421.833 666.333,446 636,468C605.942,489.801 576.833,514.167 551,540C525.408,565.592 502.036,593.549 481,623C457.667,655.667 428.223,695.176 411,736C393,778.667 381,842.667 373,879C367.577,903.631 365.801,928.935 363,954C359.667,983.833 355,1030.333 353,1058C351.509,1078.624 349.728,1099.362 351,1120C352.5,1144.333 356.167,1179.667 362,1204C367.166,1225.55 377.833,1249.333 386,1266C392.672,1279.615 401.434,1292.236 411,1304C423.333,1319.167 444.66,1338.464 460,1357C476,1376.333 489.142,1400.829 507,1420C529.667,1444.333 571.167,1478.667 596,1503C616.714,1523.297 633.533,1547.663 656,1566C678.667,1584.5 703.969,1603.414 732,1614C763.333,1625.833 806.258,1631.703 844,1637C882,1642.333 923.667,1641.5 960,1646C994.264,1650.244 1027.555,1661.651 1062,1664C1098.667,1666.5 1142.5,1666.333 1180,1661C1216.585,1655.797 1252.833,1644.333 1287,1632C1320.811,1619.795 1354.992,1606.789 1385,1587C1415.833,1566.667 1446.382,1539.043 1472,1510C1500.667,1477.5 1533.5,1427.5 1557,1392C1577.29,1361.348 1597.498,1330.33 1613,1297C1629.667,1261.167 1649.041,1218.854 1657,1177C1666.667,1126.167 1675.289,1053.694 1671,992C1666.667,929.667 1648.333,855.833 1631,803C1616.13,757.674 1594.481,713.992 1567,675C1535.167,629.833 1470.833,569.667 1440,532C1418.62,505.882 1397.833,470 1382,449C1370.616,433.901 1353,415.667 1345,406C1341.047,401.223 1338,394.833 1334,391C1330.326,387.48 1325.669,385.023 1321,383C1316,380.833 1309.856,378.771 1304,378C1297.667,377.167 1288.5,379.333 1283,378C1278.328,376.867 1275.049,372.591 1271,370C1266.833,367.333 1262.551,364.275 1258,362C1253,359.5 1247.015,356.174 1241,355C1234.167,353.667 1222.722,353.889 1217,354L1180,361ZM1267,400C1258.241,396.989 1251.5,388.833 1243,386C1234.5,383.167 1225.023,382.234 1216,383C1198.333,384.5 1160.5,392.333 1137,395C1116.422,397.335 1095.708,398.707 1075,399C1039.667,399.5 964.667,396.5 925,398C895.499,399.116 864.167,402.833 837,408C811.496,412.851 786.012,419.13 762,429C734.833,440.167 701.5,456.833 674,475C646.5,493.167 621.239,515.367 597,538C571.833,561.5 544.333,590.5 523,616C503.233,639.628 484.996,664.673 469,691C453,717.333 437.046,744.665 427,774C414.5,810.5 401.695,863.99 394,910C386,957.833 380.333,1017 379,1061C377.857,1098.722 381.167,1143 386,1174C389.915,1199.111 396.832,1224.171 408,1247C419.333,1270.167 444.667,1305.667 454,1313C460.334,1317.977 460.333,1295.333 464,1291C466.724,1287.781 472.167,1287.5 476,1287C479.651,1286.524 483.378,1287.341 487,1288C496.167,1289.667 520.5,1294.5 531,1297C537.461,1298.538 543.397,1302.282 550,1303C557.667,1303.833 568.5,1300.833 577,1302C585.354,1303.147 592.793,1308.06 601,1310C610.167,1312.167 624.333,1313 632,1315C637.339,1316.393 642.505,1318.8 647,1322C656.833,1329 674.338,1348.421 691,1357C707.833,1365.667 733.333,1367.5 748,1374C759.584,1379.134 769.106,1388.084 779,1396C791.5,1406 806.316,1424.141 823,1434C841.333,1444.833 866.643,1452.927 889,1461C913,1469.667 948.333,1477.333 967,1486C980.126,1492.094 988.462,1505.772 1001,1513C1015.167,1521.167 1041.667,1529.667 1052,1535C1056.403,1537.273 1060.284,1540.855 1063,1545C1066.167,1549.833 1065.758,1559.556 1071,1564C1078.667,1570.5 1098.5,1577.667 1109,1584C1117.793,1589.304 1127.5,1596.667 1134,1602C1139.102,1606.186 1145.167,1612.167 1148,1616C1149.88,1618.543 1151.333,1622.167 1151,1625C1150.667,1627.833 1144,1631.833 1146,1633C1148,1634.167 1157.409,1632.98 1163,1632C1179.167,1629.167 1217.334,1624.99 1243,1616C1275.833,1604.5 1323.926,1586.061 1360,1563C1396.5,1539.667 1433.167,1507.333 1462,1476C1489.866,1445.718 1511.782,1410.261 1533,1375C1556.167,1336.5 1583.667,1288.667 1601,1245C1617.826,1202.61 1631.343,1158.255 1637,1113C1642.833,1066.333 1639.667,1007.5 1636,965C1632.876,928.787 1621.5,886.167 1615,858C1610.161,837.031 1603.833,816 1597,796C1590.276,776.319 1584.393,756.015 1574,738C1561.5,716.333 1540.966,688.732 1522,666C1498.5,637.833 1458.667,599.833 1433,569C1409.669,540.972 1384.667,503.667 1368,481C1356.27,465.047 1343.167,445.167 1333,433C1325.291,423.774 1317.754,413.377 1307,408C1296,402.5 1277.667,403.667 1267,400Z"/>
    <g transform="matrix(1,0,0,1,-4,0)">
        <path d="M583,1337C560.833,1332.333 510.833,1320.333 494,1318C489.708,1317.405 485,1320.5 482,1323C479.014,1325.489 475.409,1329.158 476,1333C476.667,1337.333 482.334,1343.89 486,1349C491.5,1356.667 501.09,1369.191 509,1379C517.333,1389.333 526.333,1401.333 536,1411C545.536,1420.536 556.875,1428.09 567,1437C579.5,1448 597.333,1463.833 611,1477C624.071,1489.593 635.769,1503.575 649,1516C662.667,1528.833 682.667,1545.5 693,1554C698.716,1558.702 704.603,1563.278 711,1567C720.167,1572.333 735.225,1580.613 748,1586C761.833,1591.833 778.279,1597.948 794,1602C810.167,1606.167 827.853,1609.002 845,1611C862.167,1613 881.5,1613.333 897,1614C910.658,1614.587 927.167,1614 938,1615C946.137,1615.751 953.913,1618.824 962,1620C971.167,1621.333 982.671,1621.952 993,1623C1004.5,1624.167 1018.362,1625.42 1031,1627C1044.333,1628.667 1060,1632.167 1073,1633C1084.98,1633.768 1100,1632.5 1109,1632C1115.028,1631.665 1123.5,1631.167 1127,1630C1128.844,1629.385 1131.431,1626.315 1130,1625C1123.833,1619.333 1101.5,1603.5 1090,1596C1080.753,1589.969 1068.667,1586.333 1061,1580C1053.855,1574.098 1052.047,1562.598 1044,1558C1032.333,1551.333 1006.833,1547.833 991,1540C975.751,1532.456 963.167,1517.5 949,1511C935.625,1504.863 919.961,1505.654 906,1501C890,1495.667 869.333,1486 853,1479C837.912,1472.534 821.403,1468.477 808,1459C791.5,1447.333 766.833,1419.5 754,1409C747.184,1403.423 739.246,1399.092 731,1396C719,1391.5 695.667,1388.667 682,1382C669.414,1375.86 658.167,1362 649,1356C642.26,1351.588 634.741,1348.228 627,1346C616,1342.833 597.649,1340.084 583,1337Z" style="fill:rgb(204,118,59);"/>
    </g>
    <g id="core" transform="matrix(1,0,0,1,0.84921,-0.242685)">
        <path d="M1267,400C1258.241,396.989 1251.5,388.833 1243,386C1234.5,383.167 1225.023,382.234 1216,383C1198.333,384.5 1160.5,392.333 1137,395C1116.422,397.335 1095.708,398.707 1075,399C1039.667,399.5 964.667,396.5 925,398C895.499,399.116 864.167,402.833 837,408C811.496,412.851 786.012,419.13 762,429C734.833,440.167 701.5,456.833 674,475C646.5,493.167 621.239,515.367 597,538C571.833,561.5 544.333,590.5 523,616C503.233,639.628 484.996,664.673 469,691C453,717.333 437.046,744.665 427,774C414.5,810.5 401.695,863.99 394,910C386,957.833 380.333,1017 379,1061C377.857,1098.722 381.167,1143 386,1174C389.915,1199.111 396.832,1224.171 408,1247C419.333,1270.167 444.667,1305.667 454,1313C460.334,1317.977 460.333,1295.333 464,1291C466.724,1287.781 472.167,1287.5 476,1287C479.651,1286.524 483.378,1287.341 487,1288C496.167,1289.667 520.5,1294.5 531,1297C537.461,1298.538 543.397,1302.282 550,1303C557.667,1303.833 568.5,1300.833 577,1302C585.354,1303.147 592.793,1308.06 601,1310C610.167,1312.167 624.333,1313 632,1315C637.339,1316.393 642.505,1318.8 647,1322C656.833,1329 674.338,1348.421 691,1357C707.833,1365.667 733.333,1367.5 748,1374C759.584,1379.134 769.106,1388.084 779,1396C791.5,1406 806.316,1424.141 823,1434C841.333,1444.833 866.643,1452.927 889,1461C913,1469.667 948.333,1477.333 967,1486C980.126,1492.094 988.462,1505.772 1001,1513C1015.167,1521.167 1041.667,1529.667 1052,1535C1056.403,1537.273 1060.284,1540.855 1063,1545C1066.167,1549.833 1065.758,1559.556 1071,1564C1078.667,1570.5 1098.5,1577.667 1109,1584C1117.793,1589.304 1127.5,1596.667 1134,1602C1139.102,1606.186 1145.167,1612.167 1148,1616C1149.88,1618.543 1151.333,1622.167 1151,1625C1150.667,1627.833 1144,1631.833 1146,1633C1148,1634.167 1157.409,1632.98 1163,1632C1179.167,1629.167 1217.334,1624.99 1243,1616C1275.833,1604.5 1323.926,1586.061 1360,1563C1396.5,1539.667 1433.167,1507.333 1462,1476C1489.866,1445.718 1511.782,1410.261 1533,1375C1556.167,1336.5 1583.667,1288.667 1601,1245C1617.826,1202.61 1631.343,1158.255 1637,1113C1642.833,1066.333 1639.667,1007.5 1636,965C1632.876,928.787 1621.5,886.167 1615,858C1610.161,837.031 1603.833,816 1597,796C1590.276,776.319 1584.393,756.015 1574,738C1561.5,716.333 1540.966,688.732 1522,666C1498.5,637.833 1458.667,599.833 1433,569C1409.669,540.972 1384.667,503.667 1368,481C1356.27,465.047 1343.167,445.167 1333,433C1325.291,423.774 1317.754,413.377 1307,408C1296,402.5 1277.667,403.667 1267,400Z" style="fill:rgb(187,88,31);"/>
    </g>
    <path d="M1279,424C1276.5,423.667 1269.333,430.167 1265,433C1260.976,435.631 1257.29,439.5 1253,441C1248.71,442.5 1242.759,443.167 1239.259,442C1235.843,440.861 1234.405,436.68 1232,434C1229.457,431.167 1227.167,427.167 1224,425C1220.833,422.833 1216.894,420.757 1213,421C1207.667,421.333 1198.333,425.333 1192,427C1186.37,428.482 1180.766,430.199 1175,431C1169,431.833 1162,431.5 1156,432C1150.314,432.474 1144.498,432.473 1139,434C1133,435.667 1126.027,438.699 1120,442C1113,445.833 1104.167,451.667 1097,457C1089.981,462.224 1081.667,469.833 1077,474C1074.187,476.512 1070.667,479.667 1069,482C1067.775,483.716 1065.391,486.638 1067,488C1069.167,489.833 1076.896,491.687 1082,493C1087.833,494.5 1095.225,496.435 1102,497C1110,497.667 1123.667,496.667 1130,497C1133.395,497.179 1136.905,497.593 1140,499C1143.667,500.667 1148.685,503.519 1152,507C1155.333,510.5 1157.833,516 1160,520C1161.918,523.542 1163.333,527.833 1165,531C1166.465,533.783 1167.5,538.5 1170,539C1172.5,539.5 1176.919,536.097 1180,534C1187.833,528.667 1207.5,513.667 1217,507C1223.509,502.433 1230.5,498.333 1237,494C1243.385,489.743 1250.667,485.833 1256,481C1261.092,476.385 1265.5,470.833 1269,465C1272.5,459.167 1275.167,451 1277,446C1278.308,442.432 1279.667,438.667 1280,435C1280.333,431.333 1281.5,424.333 1279,424Z" style="fill:rgb(234,170,109);"/>
    <path d="M1238,390C1226.833,395.25 1193.603,409.455 1170,414C1143.167,419.167 1103.609,419 1077,421C1054.783,422.67 1032.626,426.259 1010.348,426C981.681,425.667 934.558,418.5 905,419C880.773,419.41 852.5,424.333 833,429C817.288,432.76 798.629,434.833 788,447C775.333,461.5 766.5,498.5 757,516C749.938,529.009 736,543 731,552C728.015,557.373 731.615,565.941 727,570C709,585.833 649.5,627.5 623,647C604.741,660.436 579.833,680.5 568,687C563.316,689.573 555.167,689.167 552,686C548.833,682.833 547.976,673.996 549,668C550.167,661.167 554.735,652.19 559,645C564.833,635.167 587.667,607.333 584,609C580.333,610.667 550.694,637.882 537,655C521,675 502.333,705.333 488,729C474.632,751.072 460.833,773.667 451,797C441.254,820.126 434.129,844.434 429,869C422.667,899.333 415.878,942.059 413,979C410,1017.5 411.667,1065.833 411,1100C410.454,1128.003 410,1161.667 409,1184C408.252,1200.703 408.167,1233.5 405,1234C401.833,1234.5 393.486,1203.071 390,1187C385.77,1167.5 381.121,1140.541 379.623,1117C377.893,1089.833 377.004,1054.889 379.623,1024C382.519,989.833 390.77,947.667 397,912C402.961,877.869 406.833,843 417,810C427.167,777 440.898,744.303 458,714C477,680.333 506.167,639 531,608C553.996,579.293 584.167,549.333 607,528C625.906,510.336 648.167,493.833 668,480C686.521,467.082 705.77,455.033 726,445C746.5,434.833 768.546,425.355 791,419C817.5,411.5 853.151,402.744 885,400C929.5,396.167 1013.167,397.333 1058,396C1090.014,395.048 1126.167,394.25 1154,392C1177.8,390.076 1211.167,384.084 1225,382.5C1228.974,382.046 1234.833,381.251 1237,382.5C1239.167,383.75 1240.282,388.927 1238,390Z" style="fill:rgb(244,194,141);"/>
    <g>
        <path d="M1034,506C1034,506 392.055,745.257 549,1294.626C549,1294.626 439.437,766.384 1034,506Z" style="fill:rgb(68,11,0);"/>
        <path d="M670,616C671,613.5 647.715,630.158 638,639C623.167,652.5 598.272,676.109 581,697C563.5,718.167 545.833,744.167 533,766C521.439,785.669 512.37,806.775 504,828C494.667,851.667 484.392,880.844 477,908C469.333,936.167 462.667,968 458,997C453.473,1025.13 449.833,1054.5 449,1082C448.191,1108.688 451.167,1140.333 453,1162C454.419,1178.769 457.167,1197.833 460,1212C462.38,1223.898 465.723,1235.645 470,1247C474.833,1259.833 481.333,1281.833 489,1289C495.579,1295.15 516.167,1297.333 516,1290C515.833,1282.667 493.623,1261.748 488,1245C480.333,1222.167 472.912,1184.112 470,1153C466.833,1119.167 466.833,1076.5 469,1042C471.027,1009.725 474.608,977.231 483,946C493.167,908.167 516.833,847.5 530,815C538.956,792.894 553,768 562,751C568.848,738.065 576.333,724.333 584,713C591.175,702.393 600,692.833 608,683C615.919,673.267 623.478,663.21 632,654C642.333,642.833 669,618.5 670,616Z" style="fill:rgb(68,11,0);"/>
        <path d="M1258,622C1258,622 1335.971,1167.329 954.956,1470C954.956,1470 1150.966,1263.971 1192,1071C1192,1071 1252.449,964.226 1258,622Z" style="fill:rgb(68,11,0);"/>
        <path d="M992,1148C992,1148 942.474,1283.447 836.892,1419C836.892,1419 858.193,1397.195 992,1148Z" style="fill:rgb(68,11,0);"/>
        <g>
            <path d="M1014,622C1014,622 924.4,690.037 888,750C888,750 977.11,654.891 1014,622Z" style="fill:rgb(68,11,0);"/>
            <path d="M853,795C853,795 749.021,905.804 721,1030C721,1030 767.443,901.833 853,795Z" style="fill:rgb(68,11,0);"/>
            <path d="M709,1060C709,1060 642.709,1192.007 664,1333C664,1333 664.658,1195.614 709,1060Z" style="fill:rgb(68,11,0);"/>
        </g>
        <g>
            <path d="M1155,584C1155,584 1044.559,718.576 1034,750L1155,584Z" style="fill:rgb(68,11,0);"/>
            <path d="M1011,767C1011,767 796.521,1052.673 754.913,1382C754.913,1382 831.213,1079.446 1011,767Z" style="fill:rgb(68,11,0);"/>
        </g>
        <path d="M1342,645C1342,645 1551.096,1197.856 1231,1449C1231,1449 1505.186,1182.526 1342,645Z" style="fill:rgb(68,11,0);"/>
        <path d="M1382,622C1382,622 1501.687,834.816 1504,1047C1504,1047 1476.164,817.124 1382,622Z" style="fill:rgb(68,11,0);"/>
        <path d="M1478,1256C1478,1256 1372.032,1571.783 1118,1588C1118,1588 1345.195,1562.61 1478,1256Z" style="fill:rgb(68,11,0);"/>
        <path d="M1491,761C1491,761 1607.805,917.309 1570,1118C1570,1118 1601.3,955.799 1491,761Z" style="fill:rgb(68,11,0);"/>
        <path d="M1584,1093C1584,1093 1592.312,1356.956 1320.044,1548C1320.044,1548 1563.412,1371.416 1584,1093Z" style="fill:rgb(68,11,0);"/>
        <path d="M1496,701C1496,701 1560.626,765.096 1584.028,869C1584.028,869 1554.102,770.026 1496,701Z" style="fill:rgb(68,11,0);"/>
        <path d="M499,1340C499,1340 525.008,1383.707 559,1407C559,1407 511.74,1350.551 499,1340Z" style="fill:rgb(68,11,0);"/>
        <g transform="matrix(0.993595,0.113,-0.113,0.993595,227.594103,2.020193)">
            <path d="M499,1340C499,1340 525.008,1383.707 559,1407C559,1407 511.74,1350.551 499,1340Z" style="fill:rgb(68,11,0);"/>
        </g>
        <g transform="matrix(0.344924,-0.938631,0.938631,0.344924,-561.673947,1555.282523)">
            <path d="M499,1340C499,1340 525.008,1383.707 559,1407C559,1407 511.74,1350.551 499,1340Z" style="fill:rgb(68,11,0);"/>
        </g>
        <g transform="matrix(0.344924,-0.938631,0.938631,0.344924,-603.465792,1594.282523)">
            <path d="M499,1340C499,1340 525.008,1383.707 559,1407C559,1407 511.74,1350.551 499,1340Z" style="fill:rgb(68,11,0);"/>
        </g>
        <g transform="matrix(1.090562,-1.293966,1.156188,0.974442,-1183.482044,933.285485)">
            <path d="M499,1340C499,1340 525.008,1383.707 559,1407C559,1407 511.74,1350.551 499,1340Z" style="fill:rgb(68,11,0);"/>
        </g>
        <path d="M758,1426.5C758,1426.5 750.612,1460.295 755,1478C755,1478 760.711,1441.975 758,1426.5" style="fill:rgb(68,11,0);"/>
        <path d="M758,1426.5C758,1426.5 750.612,1460.295 755,1478C755,1478 760.711,1441.975 758,1426.5" style="fill:rgb(68,11,0);"/>
        <g transform="matrix(0.681265,0.732037,-0.732037,0.681265,1405.117457,-32.660865)">
            <path d="M758,1426.5C758,1426.5 750.612,1460.295 755,1478C755,1478 760.711,1441.975 758,1426.5" style="fill:rgb(68,11,0);"/>
        </g>
        <g transform="matrix(0.514482,0.857501,-0.857501,0.514482,1753.219414,127.598041)">
            <path d="M758,1426.5C758,1426.5 750.612,1460.295 755,1478C755,1478 760.711,1441.975 758,1426.5" style="fill:rgb(68,11,0);"/>
        </g>
        <path d="M664,1375C664,1375 669.71,1456.204 712,1517C712,1517 670.741,1415.158 664,1375Z" style="fill:rgb(68,11,0);"/>
        <path d="M582,1341L600,1344L647,1452.25L582,1341Z" style="fill:rgb(68,11,0);"/>
        <path d="M800,1460C800,1460 759.423,1514.334 761,1531C761,1531 790.942,1478.301 800,1460Z" style="fill:rgb(68,11,0);"/>
        <path d="M857,1488C857,1488 831.098,1509.393 829,1515C829,1515 859.01,1494.898 857,1488Z" style="fill:rgb(68,11,0);"/>
        <path d="M834,1479C834,1479 813.484,1496.247 812,1501.5C810.516,1506.753 810.39,1506.747 814,1504C817.61,1501.253 833.966,1485.247 834,1479Z" style="fill:rgb(68,11,0);"/>
        <path d="M786,1538C786,1538 766.599,1547.099 766,1554C766,1554 778.057,1547.46 786,1538Z" style="fill:rgb(68,11,0);"/>
        <path d="M807,1538C807,1538 770.854,1558.35 776,1560C776,1560 785.04,1560.384 807,1538Z" style="fill:rgb(68,11,0);"/>
        <path d="M678,1485C678,1485 689.189,1532.058 716,1549C716,1549 687.324,1502.402 678,1485Z" style="fill:rgb(68,11,0);"/>
        <path d="M648,1462C648,1462 647.251,1481.298 683,1523C683,1523 659.498,1475.51 648,1462" style="fill:rgb(68,11,0);"/>
    </g>
</svg>
